<svg xmlns="http://www.w3.org/2000/svg" width="138" height="36" fill="none" xmlns:v="https://vecta.io/nano"><g clip-path="url(#A)" fill="#fff"><path d="M137.877 7.35h-2.804c-.068 0-.123.055-.123.123v2.868c0 .068.055.123.123.123h2.804c.068 0 .123-.055.123-.123V7.473c0-.068-.055-.123-.123-.123zm-77.5 4.744h-2.615c-.063 0-.11.038-.148.123L54.417 22.29c-.063.136-.199.136-.262 0l-3.197-10.074c-.038-.089-.089-.123-.148-.123h-2.665c-.101 0-.135.038-.101.123l4.165 12.39c.199.649.422 1.256.422 1.769 0 .747-.372 1.243-1.461 1.243h-2.974c-.089 0-.123.038-.123.123v2.168c0 .089.038.136.123.136h3.506c2.365 0 3.172-1.035 4.055-3.649l4.748-14.181c.013-.089-.025-.123-.123-.123h-.004zm6.002-.258c-3.831 0-6.184 2.69-6.184 6.713s2.403 6.7 6.184 6.7c1.436 0 2.678-.348 3.73-1.035s1.723-1.655 2.032-2.915v-.026c0-.064-.038-.098-.123-.098h-2.615c-.089 0-.135.038-.173.123-.481.946-1.398 1.481-2.851 1.481-2.006 0-3.32-1.456-3.32-3.089 0-.089.038-.123.123-.123h9.17c.051 0 .089-.038.123-.123.063-.238.097-.509.097-.895 0-3.972-2.365-6.713-6.196-6.713h.004zm3.122 5.516h-6.319c-.089-.013-.123-.051-.123-.136 0-1.069 1.052-2.877 3.32-2.877s3.248 1.655 3.248 2.877c0 .089-.038.136-.122.136h-.004zm7.303-10.311H74.35c-.089 0-.135.038-.135.123v17.703c.013.089.051.123.135.123h2.454c.089 0 .122-.038.122-.123V7.168c0-.089-.038-.123-.122-.123v-.004zm5.272 0h-2.454c-.089 0-.135.038-.135.123v17.703c.013.089.051.123.135.123h2.454c.085 0 .123-.038.123-.123V7.168c0-.089-.038-.123-.123-.123v-.004zm8.083 4.795c-3.966 0-6.285 2.69-6.285 6.713s2.306 6.7 6.285 6.7 6.319-2.716 6.319-6.7-2.357-6.713-6.319-6.713zm2.665 9.785c-.608.772-1.499 1.159-2.665 1.159s-2.006-.386-2.615-1.158c-.621-.772-.929-1.795-.929-3.076s.308-2.304.929-3.064c.608-.76 1.487-1.146 2.615-1.146s2.07.386 2.678 1.146.904 1.782.904 3.064-.308 2.304-.917 3.076zm22.7-9.527h-2.467c-.097 0-.16.051-.173.149l-2.108 10.048c-.063.161-.211.097-.249 0l-2.441-10.048c-.038-.098-.097-.149-.199-.149h-3.484c-.098 0-.161.051-.199.149l-2.441 10.048c-.064.136-.212.136-.25 0l-2.107-10.048c-.038-.098-.101-.149-.161-.149H96.74c-.123 0-.173.051-.135.149l2.999 12.624c.038.089.089.123.148.123h3.755c.076 0 .123-.038.161-.123l2.331-10.023c.038-.136.224-.136.262 0l2.357 10.023c.038.089.076.123.123.123h3.78c.076 0 .122-.038.16-.123l2.987-12.624c.012-.098-.038-.149-.148-.149h.004zm3.62 9.152h-3.434c-.067 0-.122.055-.122.123v3.501c0 .068.055.123.122.123h3.434c.068 0 .123-.055.123-.123v-3.501c0-.068-.055-.123-.123-.123zm14.742 1.41h-.558c-.545 0-.878-.361-.878-.849V16.58c0-1.595-.507-2.788-1.525-3.573s-2.404-1.171-4.165-1.171c-2.948 0-5.588 1.494-5.588 4.494 0 .089.038.123.122.123h2.467c.089 0 .122-.038.122-.123.013-.547.25-1.023.681-1.409s1.165-.586 2.192-.586c2.737 0 2.961 1.332 2.961 2.117 0 .297-.262.709-.807.709h-2.615c-3.717 0-5.563 1.769-5.563 4.01 0 1.184.423 2.168 1.251 2.928s2.095 1.146 3.805 1.146c1.078 0 1.981-.161 2.704-.484.718-.31 1.237-.649 1.563-.985a.12.12 0 0 1 .224.026c.447.785 1.165 1.197 2.589 1.197h1.018c.088 0 .122-.038.122-.123v-2.092c0-.089-.038-.123-.122-.123v-.004zm-4.165-2.962c0 1.43-1.077 3.089-3.928 3.089-1.783 0-2.332-.895-2.332-1.608 0-.785.41-1.795 2.915-1.795h3.222c.089.013.123.051.123.136v.174.004zm7.911-7.6h-2.454c-.089 0-.135.038-.135.123v12.649c.013.089.051.123.135.123h2.454c.089 0 .123-.038.123-.123V12.217c0-.089-.038-.123-.123-.123zM39.059 0H26.991c-.477 0-.912.272-1.128.7l-8.025 16.052V1.269c0-.7-.566-1.269-1.263-1.269H1.263C.566 0 0 .569 0 1.269v10.939c0 .7.566 1.269 1.263 1.269h12.596c.19.004.367.089.486.238l3.054 3.713c.038.047.046.114.021.174L9.136 34.167a1.27 1.27 0 0 0 1.128 1.837h12.068c.477 0 .912-.271 1.128-.7L40.187 1.837A1.27 1.27 0 0 0 39.059 0z"/></g><defs><clipPath id="A"><path fill="#fff" d="M0 0h138v36H0z"/></clipPath></defs></svg>